# xmcd
#
# Track frame offsets:
#	150
#	23347
#	43527
#	60250
#	77285
#	94980
#	115812
#	129955
#	153165
#	172137
#	189365
#	211060
#	241925
#	271532
#
# Disc length: 3644 seconds
# Revision: 2
# Processed by: cddbd v1.5.2PL0 Copyright (c) Steve Scherf et al.
# Submitted via: dBpowerAMP V12.0
#
DISCID=9a0e3a0e
DTITLE=Snooks Eaglin - Live in Japan
DYEAR=1997
DGENRE=Blues
TTITLE0=Quaker City
TTITLE1=I Went to the Mardi Gras
TTITLE2=Soul Train
TTITLE3=Don't Take It So Hard
TTITLE4=Josephine
TTITLE5=Down Yonder (We Go Ballin')
TTITLE6=Lillie Mae
TTITLE7=Nine Pound Steel
TTITLE8=It's Your Thing
TTITLE9=Yours Truly
TTITLE10=Reggae Woman, (Boogie On)
TTITLE11=Black Night
TTITLE12=Traveling Mood
TTITLE13=Reprise
EXTD=
EXTT0=
EXTT1=
EXTT2=
EXTT3=
EXTT4=
EXTT5=
EXTT6=
EXTT7=
EXTT8=
EXTT9=
EXTT10=
EXTT11=
EXTT12=
EXTT13=
PLAYORDER=
